<?xml version="1.0" encoding="UTF-8"?>
<svg style="enable-background:new 0 0 256 256;" version="1.1" viewBox="0 0 256 256" xml:space="preserve" xmlns="http://www.w3.org/2000/svg" xmlns:xlink="http://www.w3.org/1999/xlink"><style type="text/css">
	.st0{fill:#00A388;}
	.st1{fill:#EA685E;stroke:#00886F;stroke-width:15;stroke-miterlimit:10;}
	.st2{fill:#E8E8E8;}
	.st3{fill:#FFFFFF;stroke:#00886F;stroke-width:15;stroke-miterlimit:10;}
	.st4{fill:#00886F;}
	.st5{fill:#FFFFFF;}
	.st6{fill:#CCCCCC;}
	.st7{fill:none;stroke:#00A388;stroke-width:4;stroke-miterlimit:10;}
	.st8{fill:#EA685E;}
	.st9{fill:#FFAB80;}
	.st10{fill:#2C3E50;}
	.st11{fill:#4B687F;}
	.st12{fill:none;stroke:#3E5063;stroke-width:4;stroke-miterlimit:10;}
	.st13{fill:#FFD766;}
	.st14{fill:#FFE6D3;}
	.st15{fill:#F09A79;}
	.st16{fill:#C91E01;}
	.st17{fill:#EA3B28;}
	.st18{fill:#0F627F;}
	.st19{fill:#005670;}
	.st20{filter:url(#Adobe_OpacityMaskFilter);}
	.st21{mask:url(#SVGID_2_);}
	.st22{fill:#8C623B;}
	.st23{fill:#E6E6E6;stroke:#005670;stroke-width:16;stroke-miterlimit:10;}
	.st24{opacity:0.6;}
	.st25{fill:#E6E6E6;}
	.st26{fill:#FFEC82;}
	.st27{fill:#FFCF3A;}
	.st28{filter:url(#Adobe_OpacityMaskFilter_1_);}
	.st29{mask:url(#SVGID_1_);}
	.st30{fill:#603813;}
	.st31{fill:#F2F2F2;}
	.st32{fill:#666666;}
</style><g id="Layer_2"><circle class="st2" cx="128" cy="128" r="120"/></g><g id="Layer_1"><g><g><g><path class="st5" d="M197.706772,151.312088c-5.112213,4.883057-12.035995,7.881516-19.65741,7.881516H96.254539      c2.530052-5.622253,7.475639-9.92244,13.608185-11.546478c0.916237-6.674103,4.02935-12.827362,8.93325-17.585617      c5.684845-5.507866,13.18132-8.548019,21.10466-8.548019c11.380051,0,21.677307,6.36145,26.851929,16.221619      c2.821609-1.166245,5.861816-1.770203,8.954147-1.770203c5.913879,0,11.557037,2.207413,15.898788,6.216034      C194.364578,144.731781,196.436508,147.855301,197.706772,151.312088z"/></g><g><path class="st18" d="M206.546356,130.707153c0,6.007614-1.8741,11.588181-5.070526,16.190094      c-1.540924-3.196228-3.696167-6.090729-6.34079-8.537598c-5.299561-4.9039-12.20256-7.600632-19.417908-7.600632      c-2.259399,0-4.487473,0.2603-6.642715,0.770706c-6.601074-9.485222-17.418915-15.222115-29.173782-15.222115      c-9.287277,0-18.064384,3.560738-24.727936,10.016235c-4.966431,4.810112-8.339836,10.765602-9.870331,17.377174      c-6.923851,2.852814-12.213043,8.548019-14.628517,15.492584H63.499104C50.265793,159.089386,39.5,148.271683,39.5,135.059204      c0-13.306259,10.828262-24.134399,24.134464-24.134399c0.239449,0,0.478962,0,0.707989,0.01017      c1.551346-5.809593,4.726982-11.098846,9.224808-15.242714c5.934723-5.487015,13.660294-8.516747,21.750198-8.516747      c4.237595,0,8.391876,0.832733,12.254662,2.436188c7.090408-13.493607,21.177498-22.208122,36.743095-22.208122      c10.849106,0,21.104675,4.154282,28.892654,11.702812c6.70517,6.507355,10.963608,14.930313,12.223389,24.061447      C197.727554,106.426857,206.546356,117.577812,206.546356,130.707153z"/></g></g><g><path class="st5" d="M216.5,170.958954c0,9.651718-7.871292,17.554352-17.543793,17.637466H115.24559     c-11.473785,0-20.81311-9.339325-20.81311-20.823532c0-3.050568,0.645523-5.95549,1.82206-8.579285     c2.530052-5.622253,7.475639-9.92244,13.608185-11.546478c0.916237-6.674103,4.02935-12.827362,8.93325-17.585617     c5.684845-5.507866,13.18132-8.548019,21.10466-8.548019c11.380051,0,21.677307,6.36145,26.851929,16.221619     c2.821609-1.166245,5.861816-1.770203,8.954147-1.770203c5.913879,0,11.557037,2.207413,15.898788,6.216034     c2.759079,2.550842,4.831009,5.674362,6.101273,9.131149c0.239456,0.655807,0.45813,1.332474,0.635101,2.009399     c0.176987,0,0.343613-0.010422,0.520599-0.010422C208.587082,153.311066,216.5,161.223846,216.5,170.958954z"/></g></g></g></svg>